# xmcd
#
# Track frame offsets:
#	150
#	12017
#	25547
#	33875
#	51307
#	65475
#	81934
#	93883
#	108222
#	129776
#	142200
#	152466
#	168479
#
# Disc length: 2408 seconds
#
# Revision: 0
# Processed by: cddbd v1.5.2PL0 Copyright (c) Steve Scherf et al.
# Submitted via: dBpowerAMP V4.0
#
DISCID=9609660d
DTITLE=Joe Fournier - Whiskey Stars
DYEAR=2004
DGENRE=Country
TTITLE0=I like Junk
TTITLE1=Mild Side of Life
TTITLE2=The Adventures of Joe And Marie
TTITLE3=Resinator hit Parader blues
TTITLE4=Whiskey Stars
TTITLE5=My New Life
TTITLE6=Deluxe Ride
TTITLE7=Almost got it Made
TTITLE8=Darlene Don't
TTITLE9=She's gone Bad
TTITLE10=Big Mistake
TTITLE11=Pictures in my Mind
TTITLE12=Two Sandwiches Short
EXTD=
EXTT0=
EXTT1=
EXTT2=
EXTT3=
EXTT4=
EXTT5=
EXTT6=
EXTT7=
EXTT8=
EXTT9=
EXTT10=
EXTT11=
EXTT12=
PLAYORDER=
